# Blender 4.0.2
# www.blender.org
mtllib sombrinha.mtl
o Umbrella
v 0.770523 5.621490 0.031950
v 1.423740 5.024065 -0.725427
v 1.089684 5.371326 0.784209
v 2.013474 4.561826 0.664566
v 0.770523 5.121162 1.536468
v 1.423740 4.099586 2.054556
v 0.000000 5.655586 0.826221
v 0.000000 5.017545 1.848063
v 0.000000 3.908120 2.630310
v -0.770523 5.121162 1.536468
v -1.423740 4.099586 2.054556
v -1.089684 5.371326 0.784209
v -2.013474 4.561826 0.664566
v -0.770523 5.621490 0.031950
v -1.423740 5.024065 -0.725427
v 0.000000 5.725107 -0.279645
v 0.000000 5.215531 -1.301178
v 0.000000 4.680103 -1.789869
v 1.706475 4.450617 -1.099779
v 2.413320 3.896586 0.566244
v 1.706475 3.342555 2.232267
v 0.000000 3.113064 2.922354
v -1.706475 3.342555 2.232267
v -2.413320 3.896586 0.566244
v -1.706475 4.450617 -1.099779
v 1.164606 5.344682 -0.412614
v 1.647003 4.966574 0.724386
v 1.164606 4.588470 1.861386
v 0.000000 5.501299 -0.883572
v 0.000000 4.431852 2.332347
v -1.647003 4.966574 0.724386
v -1.164606 5.344682 -0.412614
v -1.164606 4.588470 1.861386
v 0.761598 5.577894 0.034650
v 1.405743 4.989658 -0.712074
v 1.077060 5.330633 0.778194
v 1.988019 4.533264 0.660345
v 0.761598 5.083366 1.521738
v 1.405743 4.076869 2.032764
v 0.000000 5.611653 0.819729
v 0.000000 4.980947 1.829724
v 0.000000 3.887825 2.601240
v -0.761598 5.083366 1.521738
v -1.405743 4.076869 2.032764
v -1.077060 5.330633 0.778194
v -1.988019 4.533264 0.660345
v -0.761598 5.577894 0.034650
v -1.405743 4.989658 -0.712074
v 0.000000 5.680314 -0.273336
v 0.000000 5.178704 -1.280550
v 0.000000 4.645791 -1.765674
v 1.686270 4.419023 -1.083756
v 2.384745 3.871548 0.562542
v 1.686270 3.324074 2.208840
v 0.000000 3.097306 2.890758
v -1.686270 3.324074 2.208840
v -2.384745 3.871548 0.562542
v -1.686270 4.419023 -1.083756
v 1.150800 5.304501 -0.404412
v 1.627479 4.930875 0.719112
v 1.150800 4.557253 1.842633
v 0.000000 5.459260 -0.869787
v 0.000000 4.402490 2.308011
v -1.627479 4.930875 0.719112
v -1.150800 5.304501 -0.404409
v -1.150800 4.557253 1.842633
v 0.000000 0.038047 -0.050136
v 0.000000 5.749375 0.793992
v 0.031821 0.033768 -0.037269
v 0.031821 5.745096 0.806859
v 0.045000 0.023441 -0.006204
v 0.045000 5.734764 0.837924
v 0.031821 0.013109 0.024861
v 0.031821 5.724437 0.868989
v 0.000000 0.008829 0.037728
v 0.000000 5.720157 0.881859
v -0.031821 0.013109 0.024861
v -0.031821 5.724437 0.868989
v -0.045000 0.023441 -0.006204
v -0.045000 5.734764 0.837924
v -0.031821 0.033768 -0.037269
v -0.031821 5.745096 0.806859
vn -0.0000 0.8744 -0.4852
vn 0.3519 0.9347 -0.0496
vn 0.5182 0.8148 -0.2598
vn 0.6146 0.6774 -0.4042
vn -0.0000 0.0574 -0.9984
vn -0.0000 0.7381 -0.6747
vn -0.0000 0.9804 -0.1969
vn -0.0000 0.9489 0.3156
vn 0.7011 0.0154 -0.7129
vn 0.8139 0.5513 0.1833
vn 0.9959 -0.0862 -0.0286
vn 0.4712 0.8369 0.2783
vn 0.6848 0.6915 0.2300
vn 0.3180 0.7529 0.5762
vn 0.4586 0.5888 0.6656
vn 0.5473 0.4453 0.7087
vn 0.7168 -0.1911 0.6706
vn -0.0000 0.5506 0.8347
vn -0.0000 -0.2367 0.9716
vn -0.0000 0.7213 0.6926
vn -0.5473 0.4453 0.7087
vn -0.7168 -0.1911 0.6706
vn -0.3180 0.7529 0.5762
vn -0.4586 0.5888 0.6656
vn -0.9959 -0.0862 -0.0286
vn -0.4712 0.8369 0.2783
vn -0.6848 0.6915 0.2300
vn -0.3519 0.9347 -0.0496
vn -0.5182 0.8148 -0.2598
vn -0.8139 0.5513 0.1833
vn -0.7011 0.0154 -0.7129
vn -0.6146 0.6774 -0.4042
vn -0.0000 0.4055 0.9141
vn -0.5179 -0.8151 0.2595
vn -0.0000 -0.9804 0.1969
vn -0.0000 -0.8747 0.4847
vn -0.0000 -0.7378 0.6751
vn 0.0055 -0.9472 -0.3206
vn -0.6148 -0.6771 0.4045
vn -0.3520 -0.9347 0.0497
vn -0.0000 -0.9489 -0.3156
vn 0.0078 -0.9489 -0.3156
vn -0.4713 -0.8369 -0.2783
vn -0.6844 -0.6918 -0.2301
vn -0.3181 -0.7529 -0.5762
vn 0.0056 -0.9506 -0.3104
vn -0.8142 -0.5510 -0.1832
vn -0.4584 -0.5891 -0.6654
vn -0.0000 -0.7213 -0.6927
vn -0.0000 -0.9513 -0.3084
vn -0.5475 -0.4450 -0.7087
vn 0.5475 -0.4450 -0.7087
vn -0.0000 -0.4052 -0.9142
vn 0.3181 -0.7529 -0.5762
vn 0.4584 -0.5891 -0.6654
vn -0.0000 -0.5510 -0.8345
vn -0.0056 -0.9506 -0.3104
vn 0.8142 -0.5510 -0.1832
vn 0.4713 -0.8369 -0.2783
vn 0.6844 -0.6918 -0.2301
vn 0.5179 -0.8151 0.2595
vn -0.0078 -0.9489 -0.3156
vn 0.6148 -0.6771 0.4045
vn 0.3520 -0.9347 0.0497
vn -0.0055 -0.9472 -0.3206
vn -0.0000 -0.9465 -0.3227
vn -0.0000 0.1462 -0.9893
vn 0.6559 0.5848 -0.4773
vn 0.7117 0.1027 -0.6949
vn 1.0000 -0.0000 -0.0000
vn 0.8737 0.4616 0.1535
vn 0.7117 -0.1027 0.6949
vn 0.5910 0.3563 0.7237
vn -0.0000 -0.1462 0.9893
vn -0.0000 0.3163 0.9487
vn -0.7117 -0.1027 0.6949
vn -0.8737 0.4616 0.1535
vn -1.0000 -0.0000 -0.0000
vn -0.6559 0.5848 -0.4773
vn -0.7117 0.1027 -0.6949
vn -0.0000 0.6433 -0.7656
vn -0.5910 0.3563 0.7237
vt 0.444994 0.568520
vt 0.493407 0.505810
vt 0.521421 0.536847
vt 0.541434 0.561099
vt 0.455120 0.639240
vt 0.448002 0.599820
vt 0.442841 0.526765
vt 0.442249 0.453851
vt 0.315656 0.677148
vt 0.405046 0.602545
vt 0.426556 0.636337
vt 0.307915 0.564270
vt 0.310258 0.491391
vt 0.359283 0.545367
vt 0.386025 0.577507
vt 0.308385 0.606078
vt 0.505772 0.177604
vt 0.432911 0.174760
vt 0.487223 0.126108
vt 0.519545 0.099588
vt 0.547582 0.177422
vt 0.618700 0.170639
vt 0.544714 0.080739
vt 0.578653 0.059461
vt 0.567340 0.293890
vt 0.577125 0.215274
vt 0.609086 0.291580
vt 0.640375 0.288453
vt 0.634113 0.172191
vt 0.679767 0.281187
vt 0.494429 0.294758
vt 0.546194 0.243405
vt 0.625704 0.416768
vt 0.625179 0.300339
vt 0.664929 0.305298
vt 0.533783 0.350799
vt 0.479114 0.302549
vt 0.551952 0.299167
vt 0.566301 0.377080
vt 0.593762 0.299041
vt 0.080370 0.525041
vt 0.161409 0.608640
vt 0.055422 0.556381
vt 0.131899 0.472998
vt 0.186334 0.424484
vt 0.180991 0.497204
vt 0.101922 0.502144
vt 0.176122 0.538730
vt 0.217496 0.580208
vt 0.296431 0.573454
vt 0.292517 0.615080
vt 0.196476 0.603593
vt 0.279413 0.685310
vt 0.172254 0.635497
vt 0.246796 0.550381
vt 0.300103 0.500630
vt 0.482904 0.484207
vt 0.547002 0.437647
vt 0.513110 0.513115
vt 0.536767 0.533829
vt 0.617396 0.449834
vt 0.568984 0.557633
vt 0.432462 0.431553
vt 0.505328 0.434275
vt 0.578200 0.441568
vt 0.288189 0.646225
vt 0.171081 0.569767
vt 0.591608 0.395742
vt 0.601301 0.195168
vt 0.578989 0.175892
vt 0.310131 0.637473
vt 0.488165 0.181601
vt 0.551103 0.233126
vt 0.518451 0.260961
vt 0.493109 0.280703
vt 0.415230 0.189960
vt 0.456114 0.183762
vt 0.531060 0.180606
vt 0.605932 0.182117
vt 0.308658 0.140076
vt 0.424125 0.150856
vt 0.432495 0.078592
vt 0.383119 0.055481
vt 0.436345 0.006068
vt 0.353880 0.085087
vt 0.428489 0.120009
vt 0.237449 0.055729
vt 0.188629 0.077365
vt 0.186324 0.006266
vt 0.265483 0.085313
vt 0.203286 0.186773
vt 0.285475 0.108366
vt 0.130935 0.188923
vt 0.076802 0.248094
vt 0.088939 0.194013
vt 0.177091 0.303501
vt 0.162516 0.186503
vt 0.016093 0.206068
vt 0.161937 0.418377
vt 0.140631 0.320119
vt 0.078140 0.357240
vt 0.089683 0.410474
vt 0.018179 0.398111
vt 0.130919 0.415774
vt 0.113476 0.335336
vt 0.202007 0.418400
vt 0.283482 0.497681
vt 0.193699 0.456824
vt 0.186255 0.527747
vt 0.234897 0.549883
vt 0.183244 0.598878
vt 0.263246 0.520554
vt 0.189746 0.487107
vt 0.427433 0.487377
vt 0.381230 0.551943
vt 0.352050 0.521900
vt 0.306996 0.466177
vt 0.423300 0.456295
vt 0.331217 0.498466
vt 0.431118 0.529095
vt 0.434385 0.602120
vt 0.518477 0.346030
vt 0.530825 0.426678
vt 0.487803 0.425520
vt 0.414675 0.416863
vt 0.493131 0.326133
vt 0.455661 0.423233
vt 0.551125 0.374072
vt 0.605932 0.425441
vt 0.140115 0.286324
vt 0.195365 0.148300
vt 0.413411 0.191835
vt 0.205474 0.188300
vt 0.308780 0.142665
vt 0.179553 0.303426
vt 0.203955 0.416620
vt 0.306810 0.463580
vt 0.412647 0.415194
vt 0.458491 0.303319
vt 0.455856 0.303463
vt 0.996653 0.673318
vt 0.915560 0.997690
vt 0.915560 0.673318
vt 0.834467 0.673318
vt 0.834467 0.997690
vt 0.753374 0.673318
vt 0.753374 0.997690
vt 0.672281 0.673318
vt 0.672281 0.997690
vt 0.591188 0.673318
vt 0.510095 0.997690
vt 0.510095 0.673318
vt 0.063216 0.856127
vt 0.166289 0.753053
vt 0.269363 0.856127
vt 0.429002 0.997690
vt 0.429002 0.673318
vt 0.347908 0.997690
vt 0.347908 0.673318
vt 0.564287 0.593998
vt 0.332988 0.108197
vt 0.191715 0.118004
vt 0.112597 0.270641
vt 0.996653 0.997690
vt 0.591188 0.997690
vt 0.239174 0.929011
vt 0.166289 0.959201
vt 0.093405 0.929011
vt 0.093405 0.783242
vt 0.239174 0.783242
s 1
usemtl Material.001
f 29/1/1 1/2/2 26/3/3
f 2/4/4 18/5/5 17/6/6
f 16/7/7 7/8/8 1/2/2
f 19/9/9 4/10/10 20/11/11
f 1/12/2 7/13/8 3/14/12
f 1/12/2 27/15/13 26/16/3
f 3/17/12 7/18/8 5/19/14
f 3/17/12 28/20/15 27/21/13
f 20/22/11 6/23/16 21/24/17
f 5/25/14 30/26/18 28/27/15
f 6/28/16 22/29/19 21/30/17
f 5/25/14 7/31/8 8/32/20
f 22/33/19 11/34/21 23/35/22
f 8/36/20 7/37/8 10/38/23
f 30/39/18 10/38/23 33/40/24
f 11/41/21 24/42/25 23/43/22
f 10/44/23 7/45/8 12/46/26
f 33/47/24 12/46/26 31/48/27
f 31/49/27 14/50/28 32/51/29
f 13/52/30 25/53/31 24/54/25
f 12/55/26 7/56/8 14/50/28
f 14/57/28 29/58/1 32/59/29
f 15/60/32 18/61/5 25/62/31
f 14/57/28 7/63/8 16/64/7
f 32/59/29 17/65/6 15/60/32
f 31/49/27 15/66/32 13/52/30
f 33/47/24 13/67/30 11/41/21
f 30/39/18 11/34/21 9/68/33
f 6/28/16 30/26/18 9/69/33
f 4/70/10 28/20/15 6/23/16
f 2/71/4 27/15/13 4/10/10
f 17/6/6 26/3/3 2/4/4
f 59/72/34 49/73/35 62/74/36
f 50/75/37 52/76/38 35/77/39
f 49/73/35 34/78/40 40/79/41
f 53/80/42 35/81/39 52/76/38
f 34/82/40 36/83/43 40/84/41
f 60/85/44 34/82/40 59/86/34
f 36/87/43 38/88/45 40/89/41
f 60/90/44 38/88/45 36/87/43
f 54/91/46 37/92/47 53/80/42
f 61/93/48 41/94/49 38/95/45
f 55/96/50 39/97/51 54/91/46
f 38/95/45 41/94/49 40/98/41
f 55/96/50 44/99/52 42/100/53
f 41/101/49 43/102/54 40/103/41
f 66/104/55 41/101/49 63/105/56
f 56/106/57 46/107/58 44/108/52
f 43/109/54 45/110/59 40/111/41
f 64/112/60 43/109/54 66/113/55
f 65/114/61 45/115/59 64/116/60
f 57/117/62 48/118/63 46/119/58
f 45/115/59 47/120/64 40/121/41
f 62/122/36 47/123/64 65/124/61
f 58/125/65 50/126/37 48/127/63
f 47/123/64 49/128/35 40/129/41
f 50/126/37 65/124/61 48/127/63
f 48/118/63 64/116/60 46/119/58
f 44/108/52 64/112/60 66/113/55
f 44/99/52 63/105/56 42/100/53
f 42/130/53 61/93/48 39/97/51
f 39/131/51 60/90/44 37/92/47
f 35/81/39 60/85/44 59/86/34
f 50/75/37 59/72/34 62/74/36
f 19/132/9 53/80/42 52/76/38
f 21/133/17 53/80/42 20/134/11
f 22/135/19 54/91/46 21/133/17
f 23/136/22 55/96/50 22/135/19
f 24/137/25 56/106/57 23/136/22
f 25/138/31 57/117/62 24/137/25
f 25/138/31 51/139/66 58/125/65
f 18/140/5 52/76/38 51/139/66
f 67/141/67 70/142/68 69/143/69
f 70/142/68 71/144/70 69/143/69
f 72/145/71 73/146/72 71/144/70
f 74/147/73 75/148/74 73/146/72
f 76/149/75 77/150/76 75/148/74
f 77/150/76 80/151/77 79/152/78
f 80/153/77 76/154/75 72/155/71
f 79/152/78 82/156/79 81/157/80
f 81/157/80 68/158/81 67/159/67
f 29/1/1 16/7/7 1/2/2
f 2/4/4 19/160/9 18/5/5
f 19/9/9 2/71/4 4/10/10
f 1/12/2 3/14/12 27/15/13
f 3/17/12 5/19/14 28/20/15
f 20/22/11 4/70/10 6/23/16
f 5/25/14 8/32/20 30/26/18
f 6/28/16 9/69/33 22/29/19
f 22/33/19 9/68/33 11/34/21
f 30/39/18 8/36/20 10/38/23
f 11/41/21 13/67/30 24/42/25
f 33/47/24 10/44/23 12/46/26
f 31/49/27 12/55/26 14/50/28
f 13/52/30 15/66/32 25/53/31
f 14/57/28 16/64/7 29/58/1
f 15/60/32 17/65/6 18/61/5
f 32/59/29 29/58/1 17/65/6
f 31/49/27 32/51/29 15/66/32
f 33/47/24 31/48/27 13/67/30
f 30/39/18 33/40/24 11/34/21
f 6/28/16 28/27/15 30/26/18
f 4/70/10 27/21/13 28/20/15
f 2/71/4 26/16/3 27/15/13
f 17/6/6 29/1/1 26/3/3
f 59/72/34 34/78/40 49/73/35
f 50/75/37 51/139/66 52/76/38
f 53/80/42 37/161/47 35/81/39
f 60/85/44 36/83/43 34/82/40
f 60/90/44 61/162/48 38/88/45
f 54/91/46 39/131/51 37/92/47
f 61/93/48 63/163/56 41/94/49
f 55/96/50 42/130/53 39/97/51
f 55/96/50 56/106/57 44/99/52
f 66/104/55 43/102/54 41/101/49
f 56/106/57 57/117/62 46/107/58
f 64/112/60 45/110/59 43/109/54
f 65/114/61 47/120/64 45/115/59
f 57/117/62 58/125/65 48/118/63
f 62/122/36 49/128/35 47/123/64
f 58/125/65 51/139/66 50/126/37
f 50/126/37 62/122/36 65/124/61
f 48/118/63 65/114/61 64/116/60
f 44/108/52 46/107/58 64/112/60
f 44/99/52 66/104/55 63/105/56
f 42/130/53 63/163/56 61/93/48
f 39/131/51 61/162/48 60/90/44
f 35/81/39 37/161/47 60/85/44
f 50/75/37 35/77/39 59/72/34
f 19/132/9 20/134/11 53/80/42
f 21/133/17 54/91/46 53/80/42
f 22/135/19 55/96/50 54/91/46
f 23/136/22 56/106/57 55/96/50
f 24/137/25 57/117/62 56/106/57
f 25/138/31 58/125/65 57/117/62
f 25/138/31 18/140/5 51/139/66
f 18/140/5 19/132/9 52/76/38
f 67/141/67 68/164/81 70/142/68
f 70/142/68 72/145/71 71/144/70
f 72/145/71 74/147/73 73/146/72
f 74/147/73 76/149/75 75/148/74
f 76/149/75 78/165/82 77/150/76
f 77/150/76 78/165/82 80/151/77
f 72/155/71 70/166/68 68/167/81
f 68/167/81 82/168/79 80/153/77
f 80/153/77 78/169/82 76/154/75
f 76/154/75 74/170/73 72/155/71
f 72/155/71 68/167/81 80/153/77
f 79/152/78 80/151/77 82/156/79
f 81/157/80 82/156/79 68/158/81
